<?xml version="1.0" encoding="utf-8"?>
<!-- Generator: Adobe Illustrator 16.0.0, SVG Export Plug-In . SVG Version: 6.00 Build 0)  -->
<!DOCTYPE svg PUBLIC "-//W3C//DTD SVG 1.1//EN" "http://www.w3.org/Graphics/SVG/1.1/DTD/svg11.dtd">
<svg version="1.1" id="Layer_1" xmlns="http://www.w3.org/2000/svg" xmlns:xlink="http://www.w3.org/1999/xlink" x="0px" y="0px"
	 width="182px" height="46px" viewBox="0 0 182 46" enable-background="new 0 0 182 46" xml:space="preserve">
<g>
	<path fill-rule="evenodd" clip-rule="evenodd" fill="#FF6A94" d="M135.482,14.779c-0.782,1.353-1.493,2.579-2.202,3.806
		c-2.611,4.52-5.208,9.048-7.837,13.557c-1.945,3.334-6.192,3.33-8.142-0.018c-3.219-5.525-6.399-11.074-9.597-16.612
		c-0.121-0.208-0.249-0.412-0.437-0.723c-0.174,0.297-0.295,0.501-0.414,0.707c-3.219,5.578-6.431,11.161-9.661,16.732
		c-1.019,1.758-2.599,2.594-4.601,2.34c-1.907-0.242-3.205-1.364-3.802-3.229c-0.428-1.337-0.174-2.587,0.51-3.772
		c2.858-4.952,5.719-9.901,8.578-14.852c1.773-3.072,3.538-6.15,5.317-9.219c1.134-1.955,2.987-2.812,5.084-2.359
		c1.391,0.3,2.378,1.134,3.079,2.353c2.773,4.817,5.555,9.631,8.333,14.445c0.538,0.931,1.078,1.86,1.685,2.906
		c0.19-0.317,0.316-0.519,0.436-0.726c3.221-5.577,6.429-11.161,9.666-16.728c1.519-2.612,4.825-3.177,7.032-1.216
		c0.414,0.367,0.765,0.838,1.044,1.32c4.666,8.056,9.323,16.118,13.968,24.188c1.304,2.266,0.566,5.042-1.632,6.315
		c-2.238,1.297-4.979,0.545-6.319-1.769c-3.161-5.454-6.306-10.918-9.458-16.377C135.934,15.538,135.749,15.23,135.482,14.779z"/>
	<path fill-rule="evenodd" clip-rule="evenodd" fill="#FF6A94" d="M165.194,34.771c-1.508-0.259-3.02-0.494-4.519-0.794
		c-0.284-0.057-0.61-0.313-0.76-0.568c-3.645-6.272-7.272-12.555-10.878-18.851c-0.153-0.266-0.146-0.697-0.066-1.013
		c1.731-6.788,7.593-11.756,14.643-12.436c8.303-0.801,15.969,4.63,17.906,12.688c2.327,9.674-4.065,19.203-13.867,20.651
		c-0.803,0.118-1.618,0.143-2.428,0.21C165.215,34.694,165.205,34.732,165.194,34.771z M165.207,25.445
		c4.223-0.002,7.622-3.405,7.623-7.63c0-4.224-3.404-7.63-7.625-7.63c-4.219,0-7.621,3.406-7.625,7.631
		C157.576,22.034,160.989,25.448,165.207,25.445z"/>
	<path fill-rule="evenodd" clip-rule="evenodd" fill="#FF6A94" d="M77.384,34.761c-7.736-0.159-14.481-5.446-16.331-12.922
		c-0.123-0.494-0.054-0.885,0.203-1.328c3.493-6.021,6.961-12.058,10.463-18.073c0.189-0.324,0.596-0.62,0.961-0.727
		c8.627-2.517,17.677,2.223,20.6,10.71c0.458,1.329,0.413,2.388-0.342,3.655c-3.357,5.628-6.592,11.331-9.851,17.018
		c-0.284,0.496-0.628,0.79-1.181,0.883C80.398,34.231,78.892,34.499,77.384,34.761z M77.306,25.445
		c4.221,0.029,7.63-3.332,7.685-7.575c0.053-4.101-3.356-7.655-7.374-7.685c-4.383-0.033-7.847,3.267-7.881,7.509
		C69.701,21.977,73.06,25.416,77.306,25.445z"/>
	<path fill-rule="evenodd" clip-rule="evenodd" fill="#FF6A94" d="M39.908,7.815c2.514,4.352,4.982,8.625,7.505,12.993
		c0.156-0.226,0.274-0.373,0.368-0.535c3.153-5.46,6.316-10.914,9.445-16.388c0.763-1.334,1.705-2.401,3.263-2.737
		c1.902-0.409,3.52,0.14,4.692,1.686c1.188,1.567,1.31,3.299,0.336,5.024c-1.711,3.03-3.464,6.037-5.204,9.051
		c-4.879,8.455-9.76,16.91-14.643,25.363c-1.188,2.059-3.265,2.939-5.4,2.303c-2.868-0.854-4.134-4.093-2.621-6.74
		c1.379-2.414,2.769-4.821,4.179-7.217c0.251-0.427,0.243-0.745-0.005-1.171c-2.319-3.983-4.611-7.984-6.929-11.969
		c-0.233-0.401-0.231-0.696,0.003-1.096c1.577-2.69,3.127-5.397,4.688-8.097C39.66,8.155,39.755,8.036,39.908,7.815z"/>
	<path fill-rule="evenodd" clip-rule="evenodd" fill="#FF6A94" d="M18.682,20.845c1.282-2.22,2.488-4.311,3.696-6.401
		c2.16-3.737,4.29-7.493,6.494-11.203c1.511-2.542,4.86-2.981,7.021-1.003c1.571,1.438,1.937,3.72,0.843,5.641
		c-2.103,3.692-4.234,7.368-6.358,11.048c-2.576,4.463-5.144,8.93-7.74,13.381c-1.394,2.39-4.432,3.055-6.621,1.434
		c-0.546-0.404-1.033-0.967-1.376-1.557C9.964,24.133,5.31,16.067,0.667,7.996C-0.665,5.683,0.06,2.91,2.278,1.627
		c2.246-1.299,4.993-0.511,6.357,1.846c3.203,5.536,6.395,11.078,9.592,16.618C18.35,20.302,18.479,20.509,18.682,20.845z"/>
</g>
</svg>
